<svg width="111" height="22" viewBox="0 0 111 22" fill="none" xmlns="http://www.w3.org/2000/svg">
<path d="M31.96 17V4.54H36.2C37.1733 4.54 37.9667 4.70667 38.58 5.04C39.2067 5.37333 39.6667 5.81333 39.96 6.36C40.2667 6.90667 40.42 7.52 40.42 8.2C40.42 8.69333 40.3333 9.16 40.16 9.6C40 10.0267 39.7467 10.4067 39.4 10.74C39.0667 11.06 38.64 11.3133 38.12 11.5C37.6133 11.6867 37.0067 11.78 36.3 11.78H34.26V17H31.96ZM34.26 9.9H36.14C36.5667 9.9 36.9267 9.82667 37.22 9.68C37.5133 9.53333 37.7333 9.33333 37.88 9.08C38.0267 8.82667 38.1 8.53333 38.1 8.2C38.1 7.86667 38.0267 7.57333 37.88 7.32C37.7333 7.06667 37.5133 6.86667 37.22 6.72C36.94 6.57333 36.5867 6.5 36.16 6.5H34.26V9.9ZM44.96 17.24C43.9333 17.24 43.1333 17 42.56 16.52C42 16.0267 41.72 15.3933 41.72 14.62C41.72 14.1267 41.8267 13.6733 42.04 13.26C42.2667 12.8333 42.6 12.4667 43.04 12.16C43.48 11.8533 44.0267 11.62 44.68 11.46C45.3333 11.2867 46.08 11.2 46.92 11.2C47.0267 11.2 47.16 11.2 47.32 11.2C47.48 11.2 47.6533 11.2067 47.84 11.22C48.0267 11.22 48.2 11.2333 48.36 11.26L48.42 12.82C48.2867 12.8067 48.1267 12.8 47.94 12.8C47.7533 12.7867 47.56 12.78 47.36 12.78C47.1733 12.7667 47.0133 12.76 46.88 12.76C46.3467 12.76 45.8933 12.8 45.52 12.88C45.16 12.96 44.8667 13.0733 44.64 13.22C44.4133 13.3533 44.2467 13.52 44.14 13.72C44.0333 13.9067 43.98 14.1133 43.98 14.34C43.98 14.5533 44.0133 14.7333 44.08 14.88C44.16 15.0267 44.26 15.1467 44.38 15.24C44.5133 15.32 44.6667 15.38 44.84 15.42C45.0133 15.46 45.2 15.48 45.4 15.48C45.8 15.48 46.1467 15.42 46.44 15.3C46.7467 15.1667 47 14.96 47.2 14.68C47.4133 14.4 47.5667 14.0533 47.66 13.64C47.7667 13.2133 47.82 12.7133 47.82 12.14C47.82 11.3667 47.74 10.7733 47.58 10.36C47.42 9.94667 47.1867 9.66 46.88 9.5C46.5733 9.32667 46.1867 9.24 45.72 9.24C45.2933 9.24 44.8867 9.31333 44.5 9.46C44.1267 9.59333 43.76 9.84667 43.4 10.22L42.16 8.86C42.68 8.36667 43.26 8.01333 43.9 7.8C44.54 7.58667 45.18 7.48 45.82 7.48C46.4067 7.48 46.9533 7.54667 47.46 7.68C47.9667 7.81333 48.4067 8.04 48.78 8.36C49.1667 8.66667 49.4667 9.09333 49.68 9.64C49.9067 10.1733 50.02 10.84 50.02 11.64V17H47.68V16C47.5067 16.2267 47.32 16.42 47.12 16.58C46.92 16.74 46.7067 16.8667 46.48 16.96C46.2533 17.0533 46.0133 17.12 45.76 17.16C45.5067 17.2133 45.24 17.24 44.96 17.24ZM52.26 17V15.22H54.88V5.36H52.38V3.58H57.16V15.22H59.76V17H52.26ZM62.26 17V15.22H64.88V5.36H62.38V3.58H67.16V15.22H69.76V17H62.26ZM76.42 17.22C75.7533 17.22 75.1333 17.1133 74.56 16.9C74 16.6867 73.5067 16.38 73.08 15.98C72.6667 15.5667 72.3467 15.06 72.12 14.46C71.8933 13.86 71.78 13.18 71.78 12.42C71.78 11.6467 71.8933 10.9533 72.12 10.34C72.3467 9.72667 72.6533 9.20667 73.04 8.78C73.44 8.35333 73.9067 8.03333 74.44 7.82C74.9733 7.59333 75.5467 7.48 76.16 7.48C76.7067 7.48 77.22 7.57333 77.7 7.76C78.18 7.94667 78.6 8.23333 78.96 8.62C79.3333 8.99333 79.6267 9.46667 79.84 10.04C80.0533 10.6 80.16 11.2533 80.16 12C80.16 12.1333 80.1533 12.2933 80.14 12.48C80.14 12.6667 80.1333 12.8267 80.12 12.96H73.96C73.9867 13.4 74.0733 13.78 74.22 14.1C74.3667 14.4067 74.56 14.66 74.8 14.86C75.04 15.06 75.3067 15.2133 75.6 15.32C75.8933 15.4133 76.2 15.46 76.52 15.46C76.8 15.46 77.0667 15.4333 77.32 15.38C77.5867 15.3267 77.8333 15.2333 78.06 15.1C78.3 14.9667 78.5267 14.7933 78.74 14.58L79.9 15.7C79.6067 16.0467 79.2733 16.34 78.9 16.58C78.54 16.8067 78.1467 16.9667 77.72 17.06C77.3067 17.1667 76.8733 17.22 76.42 17.22ZM74 11.26H77.96C77.96 10.94 77.9133 10.6533 77.82 10.4C77.74 10.1467 77.62 9.93333 77.46 9.76C77.3 9.58667 77.1 9.46 76.86 9.38C76.6333 9.28667 76.3667 9.24 76.06 9.24C75.8067 9.24 75.56 9.28 75.32 9.36C75.0933 9.42667 74.8867 9.54667 74.7 9.72C74.5133 9.89333 74.36 10.1067 74.24 10.36C74.12 10.6133 74.04 10.9133 74 11.26ZM86.18 17.22C85.62 17.22 85.08 17.1667 84.56 17.06C84.04 16.9667 83.56 16.8133 83.12 16.6C82.68 16.3733 82.2733 16.0867 81.9 15.74L82.9 13.9L82.98 13.74L83.14 13.84C83.18 13.9333 83.22 14.04 83.26 14.16C83.3 14.2667 83.4 14.3933 83.56 14.54C83.8933 14.82 84.2733 15.04 84.7 15.2C85.1267 15.36 85.6333 15.44 86.22 15.44C86.5933 15.44 86.9067 15.4 87.16 15.32C87.4267 15.2267 87.6267 15.1067 87.76 14.96C87.9067 14.8 87.98 14.62 87.98 14.42C87.98 14.26 87.94 14.12 87.86 14C87.78 13.88 87.6533 13.7733 87.48 13.68C87.3067 13.5867 87.08 13.4933 86.8 13.4C86.52 13.2933 86.1867 13.18 85.8 13.06C85.12 12.8867 84.5267 12.6733 84.02 12.42C83.5267 12.1533 83.1467 11.8333 82.88 11.46C82.6133 11.0867 82.48 10.6533 82.48 10.16C82.48 9.64 82.6267 9.18 82.92 8.78C83.2267 8.38 83.6533 8.06667 84.2 7.84C84.7467 7.6 85.3933 7.48 86.14 7.48C86.5267 7.48 86.8933 7.51333 87.24 7.58C87.5867 7.63333 87.9133 7.72 88.22 7.84C88.54 7.94667 88.8333 8.09333 89.1 8.28C89.38 8.45333 89.64 8.66 89.88 8.9L88.78 10.44L88.64 10.6L88.5 10.48C88.4867 10.3733 88.4533 10.2733 88.4 10.18C88.36 10.0733 88.26 9.94667 88.1 9.8C87.8333 9.6 87.5267 9.45333 87.18 9.36C86.8467 9.26667 86.5133 9.22 86.18 9.22C85.7267 9.22 85.3333 9.29333 85 9.44C84.68 9.58667 84.52 9.81333 84.52 10.12C84.52 10.2933 84.5933 10.4533 84.74 10.6C84.8867 10.7333 85.1267 10.8667 85.46 11C85.8067 11.12 86.26 11.2533 86.82 11.4C87.5667 11.6 88.1733 11.8333 88.64 12.1C89.12 12.3533 89.4667 12.66 89.68 13.02C89.9067 13.38 90.02 13.8 90.02 14.28C90.02 14.8 89.8733 15.2867 89.58 15.74C89.2867 16.1933 88.8533 16.5533 88.28 16.82C87.72 17.0867 87.02 17.22 86.18 17.22ZM96.18 17.22C95.62 17.22 95.08 17.1667 94.56 17.06C94.04 16.9667 93.56 16.8133 93.12 16.6C92.68 16.3733 92.2733 16.0867 91.9 15.74L92.9 13.9L92.98 13.74L93.14 13.84C93.18 13.9333 93.22 14.04 93.26 14.16C93.3 14.2667 93.4 14.3933 93.56 14.54C93.8933 14.82 94.2733 15.04 94.7 15.2C95.1267 15.36 95.6333 15.44 96.22 15.44C96.5933 15.44 96.9067 15.4 97.16 15.32C97.4267 15.2267 97.6267 15.1067 97.76 14.96C97.9067 14.8 97.98 14.62 97.98 14.42C97.98 14.26 97.94 14.12 97.86 14C97.78 13.88 97.6533 13.7733 97.48 13.68C97.3067 13.5867 97.08 13.4933 96.8 13.4C96.52 13.2933 96.1867 13.18 95.8 13.06C95.12 12.8867 94.5267 12.6733 94.02 12.42C93.5267 12.1533 93.1467 11.8333 92.88 11.46C92.6133 11.0867 92.48 10.6533 92.48 10.16C92.48 9.64 92.6267 9.18 92.92 8.78C93.2267 8.38 93.6533 8.06667 94.2 7.84C94.7467 7.6 95.3933 7.48 96.14 7.48C96.5267 7.48 96.8933 7.51333 97.24 7.58C97.5867 7.63333 97.9133 7.72 98.22 7.84C98.54 7.94667 98.8333 8.09333 99.1 8.28C99.38 8.45333 99.64 8.66 99.88 8.9L98.78 10.44L98.64 10.6L98.5 10.48C98.4867 10.3733 98.4533 10.2733 98.4 10.18C98.36 10.0733 98.26 9.94667 98.1 9.8C97.8333 9.6 97.5267 9.45333 97.18 9.36C96.8467 9.26667 96.5133 9.22 96.18 9.22C95.7267 9.22 95.3333 9.29333 95 9.44C94.68 9.58667 94.52 9.81333 94.52 10.12C94.52 10.2933 94.5933 10.4533 94.74 10.6C94.8867 10.7333 95.1267 10.8667 95.46 11C95.8067 11.12 96.26 11.2533 96.82 11.4C97.5667 11.6 98.1733 11.8333 98.64 12.1C99.12 12.3533 99.4667 12.66 99.68 13.02C99.9067 13.38 100.02 13.8 100.02 14.28C100.02 14.8 99.8733 15.2867 99.58 15.74C99.2867 16.1933 98.8533 16.5533 98.28 16.82C97.72 17.0867 97.02 17.22 96.18 17.22ZM102.68 17V15.22H104.96V9.48H102.8V7.7H107.24V15.22H109.32V17H102.68ZM106 6.16C105.613 6.16 105.28 6.02667 105 5.76C104.72 5.49333 104.58 5.17333 104.58 4.8C104.58 4.4 104.713 4.07333 104.98 3.82C105.247 3.56667 105.587 3.44 106 3.44C106.373 3.44 106.7 3.57333 106.98 3.84C107.273 4.10667 107.42 4.42667 107.42 4.8C107.42 5.17333 107.273 5.49333 106.98 5.76C106.7 6.02667 106.373 6.16 106 6.16Z" fill="white"/>
<g clip-path="url(#clip0_4_16)">
<path d="M20.6607 17.0732H19.2679L20.6607 20H22.0536L20.6607 17.0732Z" fill="url(#paint0_linear_4_16)"/>
<path d="M5.33928 17.0732H6.73214L5.33928 20H3.94643L5.33928 17.0732Z" fill="url(#paint1_linear_4_16)"/>
<path d="M7.7246 17.0732C6.98168 17.0732 6.31025 16.608 6.01761 15.8906L2.23576 6.61924C1.45389 4.70246 1.96977 2.49673 3.80399 1.69985C5.76314 0.848691 8.77575 1.94002e-07 13 0C17.2243 -1.94002e-07 20.2369 0.848691 22.196 1.69985C24.0303 2.49673 24.5461 4.70246 23.7642 6.61924L19.9824 15.8906C19.6898 16.608 19.0183 17.0732 18.2754 17.0732H7.7246Z" fill="url(#paint2_linear_4_16)"/>
<g filter="url(#filter0_dd_4_16)">
<path d="M5.54926 17.0732C3.909 17.0732 2.46294 15.9428 1.99161 14.2921L0.717236 9.82898C0.359766 8.57705 1.25202 7.31708 2.49604 7.31708H2.94048C3.69021 7.31708 4.3664 7.79071 4.65476 8.51783L6.38095 12.8705C6.45304 13.0523 6.62208 13.1707 6.80951 13.1707H19.1905C19.3779 13.1707 19.547 13.0523 19.619 12.8705L21.3452 8.51783C21.6336 7.79071 22.3098 7.31708 23.0595 7.31708H23.504C24.7481 7.31708 25.6402 8.57705 25.2827 9.82898L24.0084 14.2921C23.537 15.9428 22.091 17.0732 20.4507 17.0732H5.54926Z" fill="url(#paint3_linear_4_16)"/>
</g>
</g>
<defs>
<filter id="filter0_dd_4_16" x="-1.3623" y="6.31708" width="28.7245" height="13.7561" filterUnits="userSpaceOnUse" color-interpolation-filters="sRGB">
<feFlood flood-opacity="0" result="BackgroundImageFix"/>
<feColorMatrix in="SourceAlpha" type="matrix" values="0 0 0 0 0 0 0 0 0 0 0 0 0 0 0 0 0 0 127 0" result="hardAlpha"/>
<feOffset dy="1"/>
<feGaussianBlur stdDeviation="0.5"/>
<feColorMatrix type="matrix" values="0 0 0 0 0 0 0 0 0 0 0 0 0 0 0 0 0 0 0.2 0"/>
<feBlend mode="normal" in2="BackgroundImageFix" result="effect1_dropShadow_4_16"/>
<feColorMatrix in="SourceAlpha" type="matrix" values="0 0 0 0 0 0 0 0 0 0 0 0 0 0 0 0 0 0 127 0" result="hardAlpha"/>
<feOffset dy="1"/>
<feGaussianBlur stdDeviation="1"/>
<feColorMatrix type="matrix" values="0 0 0 0 0 0 0 0 0 0 0 0 0 0 0 0 0 0 0.1 0"/>
<feBlend mode="normal" in2="effect1_dropShadow_4_16" result="effect2_dropShadow_4_16"/>
<feBlend mode="normal" in="SourceGraphic" in2="effect2_dropShadow_4_16" result="shape"/>
</filter>
<linearGradient id="paint0_linear_4_16" x1="20.4286" y1="16.0976" x2="20.4286" y2="20" gradientUnits="userSpaceOnUse">
<stop stop-color="#602E00"/>
<stop offset="1" stop-color="#A45914"/>
</linearGradient>
<linearGradient id="paint1_linear_4_16" x1="5.57143" y1="16.0976" x2="5.57143" y2="20" gradientUnits="userSpaceOnUse">
<stop stop-color="#602E00"/>
<stop offset="1" stop-color="#A45914"/>
</linearGradient>
<linearGradient id="paint2_linear_4_16" x1="12.7679" y1="-4.63251e-07" x2="12.7679" y2="17.0732" gradientUnits="userSpaceOnUse">
<stop stop-color="#21BED2"/>
<stop offset="1" stop-color="#027E8E"/>
</linearGradient>
<linearGradient id="paint3_linear_4_16" x1="13" y1="7.31708" x2="13" y2="19.0244" gradientUnits="userSpaceOnUse">
<stop stop-color="#2BBED2"/>
<stop offset="1" stop-color="#0695A9"/>
</linearGradient>
<clipPath id="clip0_4_16">
<rect width="26" height="20" fill="white"/>
</clipPath>
</defs>
</svg>
