<svg width="29" height="29" viewBox="0 0 29 29" fill="none" xmlns="http://www.w3.org/2000/svg">
<path fill-rule="evenodd" clip-rule="evenodd" d="M9.56183 4.44177C10.7372 3.95492 11.9969 3.70435 13.2691 3.70435C14.5413 3.70435 15.801 3.95492 16.9764 4.44177C18.1517 4.92861 19.2197 5.64219 20.1192 6.54176C21.0188 7.44134 21.7324 8.50928 22.2192 9.68463C22.7061 10.86 22.9566 12.1197 22.9566 13.3919C22.9566 14.6641 22.7061 15.9238 22.2192 17.0992C21.925 17.8094 21.5481 18.4804 21.0973 19.0988L24.8561 22.8576C25.4419 23.4433 25.4419 24.3931 24.8561 24.9789C24.2703 25.5647 23.3205 25.5647 22.7347 24.9789L18.976 21.2201C17.3289 22.4209 15.3329 23.0794 13.2691 23.0794C10.6998 23.0794 8.23573 22.0588 6.41896 20.242C4.60219 18.4253 3.58154 15.9612 3.58154 13.3919C3.58154 10.8226 4.60219 8.35853 6.41896 6.54176C7.31853 5.64219 8.38648 4.92861 9.56183 4.44177ZM17.9979 18.1207C18.6189 17.4997 19.1115 16.7625 19.4476 15.9511C19.7837 15.1397 19.9566 14.2701 19.9566 13.3919C19.9566 12.5137 19.7837 11.6441 19.4476 10.8327C19.1115 10.0213 18.6189 9.28408 17.9979 8.66308C17.3769 8.04209 16.6397 7.54949 15.8283 7.21341C15.0169 6.87732 14.1473 6.70435 13.2691 6.70435C12.3909 6.70435 11.5213 6.87732 10.7099 7.21341C9.89851 7.54949 9.16128 8.04209 8.54028 8.66308C7.28612 9.91724 6.58154 11.6182 6.58154 13.3919C6.58154 15.1655 7.28612 16.8666 8.54028 18.1207C9.79444 19.3749 11.4954 20.0794 13.2691 20.0794C15.0427 20.0794 16.7437 19.3749 17.9979 18.1207Z" fill="white"/>
</svg>
